# xmcd
#
# Track frame offsets:
#	150
#	20608
#	39063
#	61351
#	80181
#	99223
#	117735
#	135433
#	152640
#	168344
#	185853
#	199931
#
# Disc length: 3029 seconds
#
# Revision: 0
# Processed by: cddbd v1.5.1PL0 Copyright (c) Steve Scherf et al.
# Submitted via: audiograbber 1.83.01
#
DISCID=a00bd30c
DTITLE=Shank Bone Mystic Project - ...from within the walls
DYEAR=2005
DGENRE=
TTITLE0=Arizona
TTITLE1=Critical Times
TTITLE2=Low and Open
TTITLE3=One Eye Red Eye
TTITLE4=My My My
TTITLE5=Doin' Time
TTITLE6=What Went Around
TTITLE7=Nobody Knows
TTITLE8=Appalachian Patience
TTITLE9=Hokus Potion
TTITLE10=Sometimes
TTITLE11=I Already Know
EXTD=
EXTT0=
EXTT1=
EXTT2=
EXTT3=
EXTT4=
EXTT5=
EXTT6=
EXTT7=
EXTT8=
EXTT9=
EXTT10=
EXTT11=
PLAYORDER=
